<?xml version="1.0" encoding="UTF-8" standalone="no"?>
<!DOCTYPE svg PUBLIC "-//W3C//DTD SVG 1.1//EN" "http://www.w3.org/Graphics/SVG/1.1/DTD/svg11.dtd">
<svg width="100%" height="100%" viewBox="0 0 279 265" version="1.1" xmlns="http://www.w3.org/2000/svg" xmlns:xlink="http://www.w3.org/1999/xlink" xml:space="preserve" xmlns:serif="http://www.serif.com/" style="fill-rule:evenodd;clip-rule:evenodd;stroke-linejoin:round;stroke-miterlimit:2;">
    <g transform="matrix(1,0,0,1,-253.039,-1108.04)">
        <rect id="Artboard1" x="0" y="0" width="3507.87" height="2480.32" style="fill:none;"/>
        <g id="Artboard11" serif:id="Artboard1">
            <g transform="matrix(1.09615,0,0,1.09615,-1530.15,-111.382)">
                <g>
                    <g>
                        <g transform="matrix(0.62591,0,0,0.62591,334.496,896.257)">
                            <path d="M2269.01,629.958C2275.31,630.546 2246.36,568.355 2253.07,576.436C2263.12,588.532 2196.33,545.091 2146.73,524.641C2138.01,521.046 2074.81,462.026 2082.56,439.896C2082.56,439.896 2086.19,584.735 2096.93,601.646C2114.74,629.691 2157.73,711.372 2164.3,714.764C2183.79,724.814 2215.82,654.186 2227.89,639.483C2250.37,612.114 2261.11,630.005 2267.85,630.005C2268.24,630.005 2268.63,629.989 2269.01,629.958Z" style="fill:rgb(0,108,128);"/>
                        </g>
                        <g transform="matrix(1,0,0,1,-1137.01,-32.4074)">
                            <path d="M2766.37,1202.7C2764.42,1215.61 2768.37,1228.21 2777.1,1239.42C2788.8,1254.45 2809.5,1267.06 2834.74,1273.83C2871.05,1283.56 2884.22,1306.16 2903.04,1330.7C2905.97,1334.52 2927.45,1361.24 2931.27,1358.31C2935.1,1355.38 2935.27,1349.77 2933.34,1345.95C2917.64,1314.88 2881.14,1268.2 2839.26,1256.97C2821.54,1252.22 2805.33,1245.32 2795.07,1235.45C2786.15,1226.87 2781.89,1218.81 2783.94,1205.24C2784.66,1200.48 2781.07,1196.09 2776.3,1195.37C2771.54,1194.65 2767.09,1197.93 2766.37,1202.7Z" style="fill:rgb(0,108,128);"/>
                        </g>
                        <g transform="matrix(0.62591,0,0,0.62591,334.496,896.257)">
                            <path d="M2269.01,629.958C2275.31,630.546 2281.01,635.896 2287.72,643.976C2297.77,656.072 2308.2,674.243 2319.7,698.289C2330.34,720.552 2345.32,730.061 2359.85,730.448C2373.87,730.821 2389.74,722.373 2403.4,702.545C2422.66,674.564 2446.34,635.983 2459.43,574.824C2462.12,562.276 2477.53,504.165 2467.75,442.943C2457.94,381.585 2420.18,349.01 2363.74,345.723C2323.01,343.35 2298.66,363.185 2267.96,380.069C2260.92,376.158 2254.3,372.015 2247.72,368.088C2225.46,354.819 2203.45,343.787 2171.96,345.622C2115.47,348.913 2077.68,381.515 2067.86,442.927C2058.07,504.166 2073.49,562.294 2076.17,574.845C2089.27,636.021 2112.95,674.613 2132.22,702.602C2145.9,722.467 2161.81,730.923 2175.86,730.549C2190.42,730.161 2205.43,720.641 2216.1,698.333C2227.59,674.296 2238.01,656.132 2248.06,644.04C2255.15,635.498 2261.11,630.005 2267.85,630.005C2268.24,630.005 2268.63,629.989 2269.01,629.958ZM2270.01,601.632C2280.55,602.233 2291.39,607.269 2302.24,617.916C2315.55,630.982 2329.75,653.639 2345.26,686.067C2349.85,695.679 2354.33,701.957 2360.6,702.125C2367.37,702.305 2373.47,696.049 2380.06,686.476C2397.8,660.709 2419.67,625.211 2431.73,568.893C2434.2,557.332 2448.78,503.819 2439.77,447.415C2432.41,401.355 2404.46,376.476 2362.09,374.008C2341.16,372.789 2325.74,379.361 2310.88,387.672C2307.4,389.621 2303.94,391.662 2300.47,393.742C2316.54,398.082 2335.66,399.647 2360.1,395.808C2367.88,394.586 2375.19,399.909 2376.41,407.688C2377.63,415.467 2372.31,422.775 2364.53,423.997C2308.8,432.754 2276.39,418.063 2248.35,401.707C2224.97,388.074 2205.54,372.249 2173.62,374.109C2131.3,376.574 2103.39,401.425 2096.04,447.431C2087.02,503.817 2101.6,557.314 2104.08,568.872C2116.13,625.172 2137.99,660.66 2155.73,686.419C2162.29,695.955 2168.35,702.203 2175.1,702.024C2181.35,701.857 2185.78,695.591 2190.36,686.024C2205.87,653.582 2220.08,630.915 2233.39,617.844C2245.01,606.446 2256.62,601.47 2267.85,601.47C2268.59,601.47 2269.31,601.525 2270.01,601.632Z" style="fill:rgb(0,108,128);"/>
                        </g>
                    </g>
                </g>
            </g>
        </g>
    </g>
</svg>
